<?xml version="1.0" encoding="utf-8"?>
<!-- Generator: Adobe Illustrator 21.0.0, SVG Export Plug-In . SVG Version: 6.00 Build 0)  -->
<svg version="1.1" id="Layer_1" xmlns="http://www.w3.org/2000/svg" xmlns:xlink="http://www.w3.org/1999/xlink" x="0px" y="0px"
	 viewBox="0 0 1486 790" style="enable-background:new 0 0 1486 790;" xml:space="preserve">
<style type="text/css">
	.st0{fill:#00B6FF;}
	.st1{fill:#00B9DC;}
	.st2{fill:#0091FF;}
	.st3{fill:#005FB8;}
	.st4{fill:#2D3965;}
	.st5{fill:#00AEF7;}
	.st6{fill:#006FCF;}
	.st7{fill:#FFFFFF;}
	.st8{fill:#C7A66F;}
</style>
<path class="st0" d="M1370.4,65.3c-88.7,0-88.7,41-177.5,41c-88.7,0-88.7-41-177.4-41c-88.7,0-88.7,41-177.4,41
	c-88.7,0-88.7-41-177.4-41c-88.7,0-88.7,41-177.4,41c-88.7,0-88.7-41-177.4-41c-88.7,0-88.7,41-177.4,41C61,106.2,43.2,80.8,0,69.9
	V790h1486V96C1450.3,83.8,1432.8,65.3,1370.4,65.3z"/>
<path class="st1" d="M0,67.5v2.4c43.2,10.8,61,36.3,128.3,36.3c28.4,0,47.8-4.2,63.8-9.9c-13.5,2.4-29.4,3.9-49.3,3.9
	C67.9,100.2,48.3,77.2,0,67.5z"/>
<path class="st1" d="M304.6,65.3c0.4,0,0.7,0,1.1,0c88.7,0,88.7,41,177.4,41c21.5,0,37.7-2.4,51.3-6c-96.5-0.5-97.1-36.8-194.9-36.8
	C326.3,63.4,314.8,64.1,304.6,65.3z"/>
<path class="st1" d="M1063.2,70.4c45.3,11,60.6,35.9,129.7,35.9c32.2,0,52.7-5.4,70-12.3c-44.5-10.5-63.6-30.5-136.2-30.5
	C1099.4,63.4,1079.6,66.3,1063.2,70.4z"/>
<path class="st1" d="M1438,76c16.7,6.2,30.1,13.9,48,20V65.2C1466.3,67.4,1451.4,71.4,1438,76z"/>
<path class="st1" d="M687.6,66.7c62.9,7.3,71.8,39.5,150.4,39.5c24.8,0,42.6-3.2,57.4-7.8c-65.6-7.4-77-35-162.3-35
	C715.1,63.4,700.3,64.7,687.6,66.7z"/>
<path class="st2" d="M1438,76c-31.2,10.7-54.7,24.2-114.5,24.2c-25.8,0-44.8-2.5-60.6-6.3c-17.3,6.9-37.8,12.3-70,12.3
	c-69.1,0-84.4-24.9-129.7-35.9c-42.5,10.7-62.3,29.8-133.3,29.8c-13.1,0-24.4-0.7-34.5-1.8c-14.8,4.6-32.7,7.8-57.4,7.8
	c-78.7,0-87.6-32.2-150.4-39.5c-56.1,9-70.9,33.5-151.2,33.5c-0.7,0-1.3,0-1.9,0c-13.6,3.6-29.8,6-51.3,6c-88.7,0-88.7-41-177.4-41
	c-0.4,0-0.7,0-1.1,0c-50,5.7-68.4,23.2-112.6,31.1c-16,5.7-35.4,9.9-63.8,9.9C61,106.2,43.2,80.7,0,69.9V790h1486V96
	C1468.1,89.9,1454.8,82.2,1438,76z"/>
<g>
	<path class="st3" d="M560.9,475.2c41.5,15.4,64.9,59.6,50.4,102.3c-0.1,0.2,0.1-0.4,0.1-0.5c-11.6,32-23,64-34.3,96.1
		c-8,22.8-17.7,45.7-22.1,69.6c-1.5,8-2.4,16.1-2.6,24.2c-0.1,4.2,0,8.5,0.3,12.7c0.1,1.1,0.2,6.1,0.6,10.3h94.1
		c-14.1-12.9-13.2-32.9-8.9-51.9c-0.2,0.6-0.2,0.8-0.2,0.5c8.3-30.2,15.2-60.8,22.9-91.1c6.2-24.5,15.3-49.5,17.3-74.9
		c5.2-63.8-35.4-125.7-97.3-144c-12.8-3.8-26.6-2.1-33.7,10.7C540.2,452.6,546.6,469.9,560.9,475.2z"/>
	<path class="st3" d="M966.1,790c-13.9-14.2-22.3-38.2-17.1-55.6c6.4-28.2,12.9-56.3,19.9-84.3c5.9-23.6,13.6-45.9,10.6-70.6
		c-3.8-30.6-20.8-58.2-44.8-77.2c-8.8-7-19.3-12-29.9-5.1c-10.6,6.8-12.7,21.9-4.5,31.5c3.6,4.2,8.5,7.2,12.3,11.3
		c5.2,5.6,9.5,11.9,12.7,18.8c6.7,14.5,7.9,30.9,2.3,45.9c0-0.1,0.2-0.7,0.1-0.5c-13.6,35.5-26.8,71.1-39.8,106.8
		c-9.2,25.4-10.8,52.8-4.7,79.1H966.1z"/>
	<path class="st4" d="M486.7,582.4c31.9,33.5,64.7,66.2,96.9,99.5c7.7,7.9,15.3,15.9,23,23.8c0.2,0.2,0.1,0.1-0.3-0.3
		c9.7,10.5,18.8,22,23.8,35.6c6.4,17.5,1.9,34.3-7.9,49h315.9c-11.2-14.2-29.3-25.7-23.4-46.5c5.2-18.4,22.8-32.7,35.4-45.8
		c19.3-20,38.5-40,58-59.8c14-14.2,27.9-27.7,37.6-45.4c14.9-27,19.9-58.9,14.1-89.2c-13.4-69.6-82.1-117.7-152.5-103.7
		c-75.5,15-122.4,97.2-92.9,169.8c6,14.7,14.9,28.3,26.1,39.6c12.3,12.5,34.7,11.6,39.7-7.8c4.1-15.8-12-26.8-18.2-39.6
		c-8.8-18.2-10.1-39.5-3.3-58.5c12.6-35.3,51.4-56.2,87.8-45.6c28.7,8.4,49.2,34.6,49.6,64.6c0.2,18.4-7.4,36-20.7,48.6
		c-16.2,15.3-32.9,30-49.2,45.1c-23.6,21.9-50.4,42.7-69.8,68.7c-6.2,8.4-11.6,17.5-15.7,27.2c-6.5-30.2-17.7-59.4-27.4-88.7
		c-12.8-38.9-25.8-77.8-39-116.6c-5.3-20.6-7.4-40.4-2-61.4c6.2-24,20.8-45.8,40.4-60.9c9.4-7.3,20-13.2,31.2-17.2
		c8.8-3.2,16.2-7.5,18.6-17.3c2.4-9.9-2.4-20.5-11.5-25.2c-7.6-3.9-15.7-2.1-23.6-0.2c-47.1,11.1-87.3,43.3-109.9,85.9
		c-12.2,22.9-19,48.6-20.2,74.5c-0.9,19.1,2.2,37.4,5.6,56c5.8,31.1,11.4,62.3,16.9,93.4c2.7,15.4,5.4,30.8,8.1,46.2
		c1.9,10.8,2.8,22.4,5.8,32.9c-0.7-2.6,0.5,3.7,0.6,4.4c0.2,1.7,0.3,3.2,0.4,4.9c0.2,4,0.4,8.1,0.2,12.2c-0.6,16.3-5.6,28.7-21,35.6
		c2.8-46.4-21.7-87.6-54.3-118.6c-38.9-37.1-78.7-73.2-118.4-109.4c-8.1-7.4-16-14.8-22.1-24c-11.5-17.4-17-38.3-15.8-59.1
		c2.3-39.2,28.3-73.5,64.8-87.3c24.8-9.3,52.8-8.5,77.1,1.9c9.2,4,18,9.3,25.7,15.8c7.7,6.5,15,12.3,25.8,9.3
		c10.6-2.9,17.5-13.5,16.1-24.3c-1.3-10-9.9-17-17.2-23.2c-20.5-17.5-45.8-29.3-72.4-33.9c-49.7-8.6-101.4,8.4-136.6,44.5
		c-31.8,32.6-48,78.4-44,123.7C445.9,521.9,461.6,556.1,486.7,582.4z"/>
</g>
<circle class="st5" cx="753.2" cy="189.3" r="6"/>
<circle class="st5" cx="658" cy="601" r="6"/>
<circle class="st5" cx="715" cy="454.4" r="9"/>
<circle class="st5" cx="608.6" cy="424" r="9"/>
<circle class="st6" cx="640.2" cy="439.6" r="6.7"/>
<circle class="st6" cx="829.8" cy="306" r="4.6"/>
<circle class="st7" cx="751.9" cy="658.5" r="4.5"/>
<circle class="st6" cx="569.5" cy="332.9" r="4.5"/>
<circle class="st6" cx="782.3" cy="602.2" r="4.5"/>
<circle class="st6" cx="873.5" cy="368.8" r="4.5"/>
<circle class="st6" cx="736.6" cy="216" r="4.5"/>
<circle class="st7" cx="541.8" cy="347" r="7.5"/>
<circle class="st7" cx="744.6" cy="263.4" r="7.5"/>
<circle class="st7" cx="706.8" cy="524.5" r="9.8"/>
<circle class="st7" cx="773" cy="687.3" r="9.8"/>
<path class="st7" d="M711.6,96.7c8.4,2.3,16.8,4.5,25.3,6.1c6,0.4,12,0.4,18,0c1.3-0.2,2.6-0.5,3.9-0.8c6.5-12.5,11.5-22,11.6-22.2
	l0.1,0c10.5-20.1-6.1-13,6.3-39.3l12.6-24.1l-16.8-8.8l-12.7,24.3c-14.5,25-18.1,7.3-28.7,27.4l0,0.1
	C731.1,59.5,721.6,77.7,711.6,96.7z"/>
<rect x="769.3" y="6.6" transform="matrix(0.4644 -0.8856 0.8856 0.4644 406.7076 698.1448)" class="st8" width="22.4" height="12.5"/>
<path class="st7" d="M789.1,24.1c-0.4,0.8-1.5,1.2-2.3,0.7l-19.7-10.3c-0.8-0.4-1.2-1.5-0.7-2.3l2.5-4.8c0.4-0.8,1.5-1.2,2.3-0.7
	l19.7,10.3c0.8,0.4,1.2,1.5,0.7,2.3L789.1,24.1z"/>
<path class="st3" d="M698.7,121.2c-5.7,10.8-9.8,18.7-9.8,18.7c-1.9,3.6-0.5,8,3.1,9.9l26.3,13.8c3.6,1.9,8,0.5,9.9-3.1
	c0,0,12.1-23.2,23.4-44.7C734.2,119.4,716.3,121.4,698.7,121.2z"/>
<g>
	<g>
		<path class="st7" d="M689,239.7l-3.2-6.2l2.6-21.7l8.2-4.3l8.7,16.5l3-1.6l2.9,5.6l-3,1.6l2.6,5l-7.3,3.9l-2.6-5L689,239.7z
			 M698.4,227.6l-3.8-7.3c-0.1-0.3-0.3-0.6-0.6-1.7c-0.3-0.9-0.5-1.8-0.6-2.7c0.1,0.8,0.1,1.7,0.1,2.8l0,0.9l0,0.3l-0.9,10.8
			L698.4,227.6z"/>
	</g>
</g>
<g>
	<path class="st6" d="M716.9,307.3c0.2-0.9,0.5-1.8,0.8-2.6c2.6-7.7,6.4-10.6,12.2-10.2c8.9,0.6,12.9,6.5,11.1,16.3
		c-0.3,1.8-0.8,3.5-1.4,5.2c-3.2,9.4-9.6,12.6-17.6,8.8c-5.2-2.5-7.2-6.9-5.7-14.8C716.5,309,716.7,308.2,716.9,307.3z M724.8,310.9
		c-0.4,2-0.6,2.9-0.7,3.7c-0.3,3.8,0.9,5.4,3.1,5.2c1.2-0.1,2.2-1,3.3-3.5c0.3-0.8,0.6-1.6,1.2-3.6c0.3-1,0.6-2,0.8-3
		c0.4-2,0.6-2.9,0.7-3.7c0.3-3.4-0.5-4.7-2.1-5.1c-1.6-0.4-2.9,0.3-4.3,3.4c-0.3,0.8-0.6,1.6-1.2,3.6c-0.2,0.5-0.3,1-0.4,1.5
		C725,309.9,724.9,310.4,724.8,310.9z"/>
</g>
<g>
	<path class="st6" d="M752.3,432.1l1.4-6.8l15.7-15.2l9.1,1.8l-3.7,18.3l3.3,0.7l-1.2,6.2l-3.3-0.7l-1.1,5.6l-8.1-1.6l1.1-5.5
		L752.3,432.1z M767.1,428.6l1.6-8.1c0.1-0.3,0.2-0.7,0.6-1.7c0.3-0.8,0.7-1.7,1.2-2.5c-0.5,0.7-1,1.4-1.7,2.2l-0.6,0.7l-0.2,0.2
		l-7.5,7.8L767.1,428.6z"/>
</g>
</svg>
